<?xml version="1.0" standalone="no"?>
<!DOCTYPE svg PUBLIC "-//W3C//DTD SVG 20010904//EN"
 "http://www.w3.org/TR/2001/REC-SVG-20010904/DTD/svg10.dtd">
<svg version="1.0" xmlns="http://www.w3.org/2000/svg"
 width="1024.000000pt" height="640.000000pt" viewBox="0 0 1024.000000 640.000000"
 preserveAspectRatio="xMidYMid meet">

<g transform="translate(0.000000,640.000000) scale(0.100000,-0.100000)"
fill="#000000" stroke="none">
<path d="M6610 4120 l0 -1210 -165 0 -165 0 0 -1010 0 -1010 375 0 375 0 0
1010 0 1010 -165 0 -165 0 0 1210 0 1210 -45 0 -45 0 0 -1210z"/>
<path d="M6800 4735 c0 -327 3 -595 6 -595 5 0 104 53 344 183 204 111 342
186 517 279 119 64 195 110 199 122 4 11 -1 25 -12 36 -11 10 -120 72 -244
138 -124 65 -252 134 -285 152 -102 55 -305 164 -417 224 l-108 57 0 -596z"/>
<path d="M3307 4650 c-137 -35 -222 -144 -221 -285 1 -116 58 -211 158 -263
43 -22 64 -26 131 -26 67 0 88 4 131 26 171 89 214 312 88 456 -24 27 -63 59
-86 71 -51 24 -148 34 -201 21z"/>
<path d="M3424 4016 c-94 -22 -136 -48 -257 -165 -62 -59 -142 -136 -179 -170
-37 -35 -72 -77 -79 -93 -9 -23 -10 -67 0 -206 23 -337 41 -506 57 -530 21
-32 79 -55 120 -47 41 7 92 56 96 93 3 26 -8 181 -32 461 l-12 134 36 36 c22
21 39 32 44 26 5 -6 21 -82 36 -170 15 -88 39 -216 52 -285 14 -69 34 -224 44
-345 l20 -219 -149 -151 c-163 -164 -178 -189 -159 -264 19 -74 99 -120 175
-99 53 14 410 377 419 426 4 18 -1 118 -11 223 -9 105 -15 193 -13 195 2 2 35
8 74 15 l69 11 130 -61 130 -60 53 -98 c29 -54 78 -145 109 -203 172 -322 166
-315 259 -315 66 0 67 0 105 44 72 81 69 87 -276 711 -47 84 -38 78 -266 185
l-125 59 -26 135 c-14 75 -23 139 -19 143 3 4 51 0 106 -8 192 -29 390 -54
427 -54 50 0 87 18 104 51 17 33 18 89 3 122 -23 51 -30 52 -514 117 -83 11
-154 20 -157 20 -13 0 -27 37 -43 116 -38 179 -167 261 -351 220z"/>
<path d="M5160 1655 l0 -765 373 2 372 3 3 763 2 762 -375 0 -375 0 0 -765z"/>
<path d="M4040 1460 l0 -570 370 0 c290 0 370 3 370 13 -1 6 0 210 1 452 1
242 2 493 1 558 l-2 117 -370 0 -370 0 0 -570z"/>
<path d="M2912 1268 l3 -373 373 0 373 0 2 372 2 373 -378 0 -377 0 2 -372z"/>
</g>
</svg>
