<?xml version="1.0" standalone="no"?>
<!DOCTYPE svg PUBLIC "-//W3C//DTD SVG 20010904//EN"
 "http://www.w3.org/TR/2001/REC-SVG-20010904/DTD/svg10.dtd">
<svg version="1.0" xmlns="http://www.w3.org/2000/svg"
 width="339.000000pt" height="341.000000pt" viewBox="0 0 339.000000 341.000000"
 preserveAspectRatio="xMidYMid meet">

<g transform="translate(0.000000,341.000000) scale(0.100000,-0.100000)"
fill="#000000" stroke="none">
<path d="M1510 3343 c-163 -15 -411 -91 -560 -171 -288 -153 -495 -347 -669
-625 -23 -38 -51 -88 -61 -110 -9 -23 -29 -67 -43 -97 -83 -185 -127 -403
-127 -640 0 -336 92 -644 275 -916 73 -108 200 -255 218 -251 7 1 11 -4 10
-10 -7 -33 245 -218 407 -299 130 -65 126 -66 133 7 7 80 54 176 115 235 40
38 144 99 205 118 15 5 17 19 17 111 l0 105 -64 0 c-125 0 -273 42 -379 108
-110 68 -227 229 -260 360 -10 40 -23 62 -54 90 -53 49 -79 103 -87 182 -14
131 31 244 113 285 35 18 49 34 72 81 110 225 328 354 598 354 96 0 103 1 142
30 23 16 58 32 78 36 67 12 67 12 68 132 2 104 1 110 -21 121 -60 33 -75 134
-28 190 65 78 206 35 216 -66 4 -39 -20 -93 -55 -125 -29 -26 -29 -28 -29
-132 l0 -106 28 -5 c55 -11 98 -28 128 -51 28 -21 42 -24 130 -24 54 0 130 -7
168 -15 96 -20 220 -83 291 -148 64 -58 140 -160 151 -202 3 -14 10 -25 15
-25 5 0 9 -6 9 -14 0 -8 13 -19 29 -24 39 -14 80 -57 104 -111 25 -55 29 -194
8 -256 -18 -51 -60 -111 -88 -124 -14 -7 -26 -25 -33 -53 -74 -291 -335 -488
-647 -488 l-63 0 0 -105 c0 -92 2 -106 18 -111 96 -31 198 -97 244 -160 42
-57 78 -156 78 -214 0 -25 5 -40 13 -40 26 0 241 118 329 180 104 74 294 255
359 345 24 33 47 61 51 63 4 2 4 10 1 19 -5 12 -3 14 7 8 10 -6 12 -4 7 9 -4
9 -3 15 3 11 17 -10 130 204 176 335 105 299 124 641 54 935 -74 306 -216 561
-439 784 -268 270 -571 423 -936 476 -89 13 -329 18 -425 8z"/>
<path d="M1303 1618 c-32 -15 -57 -69 -49 -103 10 -40 62 -85 98 -85 44 0 98
57 98 102 0 71 -80 118 -147 86z"/>
<path d="M2001 1616 c-53 -30 -66 -97 -26 -144 47 -56 118 -51 155 10 28 46
25 71 -14 112 -36 39 -72 46 -115 22z"/>
</g>
</svg>
