<svg width="32" height="26" viewBox="0 0 32 26" fill="none" xmlns="http://www.w3.org/2000/svg">
<path d="M21.122 17.514L22.9628 11.8339L17.2805 8.48052L15.4398 14.1607L21.122 17.514ZM3.19488 23.0231L1.87435 22.4756C1.04735 22.179 0.487128 21.6715 0.193677 20.9529C-0.0997732 20.2343 -0.0597573 19.5214 0.313725 18.8143L3.19488 13.4763V23.0231ZM9.59744 26C8.71709 26 7.96345 25.7263 7.33653 25.1788C6.70962 24.6313 6.39616 23.9812 6.39616 23.2284V15.0503L10.6779 25.1103C10.7579 25.27 10.8246 25.424 10.878 25.5723C10.9313 25.7206 11.0247 25.8631 11.1581 26H9.59744ZM17.8407 25.8289C17.0137 26.0798 16.1867 26.0456 15.3597 25.7263C14.5327 25.4069 13.9725 24.8936 13.6791 24.1865L6.59624 7.45399C6.30279 6.74682 6.3428 6.04536 6.71629 5.3496C7.08977 4.65384 7.69001 4.18049 8.51701 3.92956L20.5618 0.165614C21.3888 -0.0853162 22.2092 -0.0510985 23.0228 0.268267C23.8365 0.587633 24.39 1.1009 24.6835 1.80807L31.8063 18.5405C32.0998 19.2477 32.0598 19.9492 31.6863 20.6449C31.3128 21.3407 30.7126 21.814 29.8856 22.065L17.8407 25.8289ZM16.7203 23.2626L28.8051 19.4986L21.6423 2.73194L9.59744 6.49589L16.7203 23.2626Z" fill="#3D5CFF" fill-opacity="0.811765"/>
</svg>
